<svg width="50" height="50" viewBox="0 0 50 50" fill="none" xmlns="http://www.w3.org/2000/svg">
<g clip-path="url(#clip0_330_150)">
<path d="M0 25C0 20.4667 1.1167 16.2834 3.35 12.45C5.58335 8.61665 8.6167 5.58335 12.45 3.35C16.2834 1.11665 20.4667 0 25 0C29.5334 0 33.7167 1.11665 37.55 3.35C41.3834 5.58335 44.4167 8.61665 46.65 12.45C48.8834 16.2834 50 20.4667 50 25C50 29.5334 48.8834 33.7167 46.65 37.55C44.4167 41.3834 41.3834 44.4167 37.55 46.65C33.7167 48.8834 29.5334 50 25 50C20.4667 50 16.2834 48.8834 12.45 46.65C8.6167 44.4167 5.58335 41.3834 3.35 37.55C1.1167 33.7167 0 29.5334 0 25ZM4.15 25C4.15 30.2 5.9 34.7834 9.4 38.75C11 35.6167 13.5334 32.6334 17 29.8C20.4667 26.9667 23.85 25.1834 27.15 24.45C26.65 23.2834 26.1667 22.2334 25.7 21.3C19.9667 23.1334 13.7667 24.05 7.1 24.05C5.8 24.05 4.83335 24.0334 4.2 24C4.2 24.1334 4.1917 24.3 4.175 24.5C4.15835 24.7 4.15 24.8667 4.15 25ZM4.8 19.85C5.53335 19.9167 6.6167 19.95 8.05 19.95C13.6167 19.95 18.9 19.2 23.9 17.7C21.3667 13.2 18.5834 9.45 15.55 6.45C12.9167 7.78335 10.6584 9.63335 8.775 12C6.8917 14.3667 5.5667 16.9834 4.8 19.85ZM12.25 41.45C16.0167 44.3834 20.2667 45.85 25 45.85C27.4667 45.85 29.9167 45.3834 32.35 44.45C31.6834 38.75 30.3834 33.2334 28.45 27.9C25.3834 28.5667 22.2917 30.25 19.175 32.95C16.0584 35.65 13.75 38.4834 12.25 41.45ZM19.9 4.85C22.8334 7.88335 25.55 11.6667 28.05 16.2C32.5834 14.3 36 11.8834 38.3 8.95C34.4334 5.75 30 4.15 25 4.15C23.3 4.15 21.6 4.38335 19.9 4.85ZM29.85 19.75C30.35 20.8167 30.9167 22.1667 31.55 23.8C34.0167 23.5667 36.7 23.45 39.6 23.45C41.6667 23.45 43.7167 23.5 45.75 23.6C45.4834 19.0667 43.85 15.0334 40.85 11.5C38.6834 14.7334 35.0167 17.4834 29.85 19.75ZM32.8 27.3C34.5 32.2334 35.65 37.3 36.25 42.5C38.8834 40.8 41.0334 38.6167 42.7 35.95C44.3667 33.2834 45.3667 30.4 45.7 27.3C43.2667 27.1334 41.05 27.05 39.05 27.05C37.2167 27.05 35.1334 27.1334 32.8 27.3Z" fill="black"/>
</g>
<defs>
<clipPath id="clip0_330_150">
<rect width="50" height="50" fill="white"/>
</clipPath>
</defs>
</svg>
