<svg width="1563" height="346" viewBox="0 0 1563 346" fill="none" xmlns="http://www.w3.org/2000/svg">
<path d="M138.09 132.256C138.09 101.915 115.14 87.9111 84.4102 87.9111C44.3445 87.9111 22.9502 106.971 21.0053 136.923H9.33569C11.2806 109.305 28.3961 77.7974 84.4102 77.7974C120.586 77.7974 149.76 92.9679 149.76 139.257V240.394C149.76 255.953 147.815 277.348 179.323 270.735V280.849C174.266 282.016 169.598 282.405 166.486 282.405C146.259 282.405 138.09 273.069 138.09 247.785H137.312C121.364 274.236 95.6908 284.738 64.1829 284.738C26.0621 284.738 0 264.122 0 231.836C0 194.493 23.3392 178.156 74.6855 170.376C104.638 165.708 138.09 166.486 138.09 132.256ZM67.2948 274.625C115.918 274.625 138.09 241.95 138.09 219.389V160.263C132.256 173.099 107.749 176.989 78.5754 180.49C40.4547 185.158 11.6696 196.438 11.6696 228.335C11.6696 259.065 31.5079 274.625 67.2948 274.625Z" fill="black"/>
<path d="M212.089 32.6749C207.81 32.6749 202.364 29.174 202.364 23.3392C202.364 17.1154 207.81 14.0035 212.089 14.0035C216.757 14.0035 221.814 17.1154 221.814 23.3392C221.814 29.174 216.757 32.6749 212.089 32.6749ZM206.254 80.5203H217.924V280.46H206.254V80.5203Z" fill="black"/>
<path d="M334.699 90.634H290.743V228.724C290.743 255.175 291.132 278.515 334.699 269.179V279.293C327.697 280.849 321.862 281.627 313.694 281.627C295.022 281.627 279.074 272.291 279.074 231.836V90.634H249.9V80.5203H279.074V15.9485H290.743V80.5203H334.699V90.634Z" fill="black"/>
<path d="M491.37 132.256C491.37 101.915 468.419 87.9111 437.689 87.9111C397.624 87.9111 376.229 106.971 374.285 136.923H362.615C364.56 109.305 381.675 77.7974 437.689 77.7974C473.865 77.7974 503.039 92.9679 503.039 139.257V240.394C503.039 255.953 501.094 277.348 532.602 270.735V280.849C527.545 282.016 522.878 282.405 519.766 282.405C499.538 282.405 491.37 273.069 491.37 247.785H490.592C474.643 274.236 448.97 284.738 417.462 284.738C379.341 284.738 353.279 264.122 353.279 231.836C353.279 194.493 376.618 178.156 427.965 170.376C457.917 165.708 491.37 166.486 491.37 132.256ZM420.574 274.625C469.197 274.625 491.37 241.95 491.37 219.389V160.263C485.535 173.099 461.029 176.989 431.855 180.49C393.734 185.158 364.949 196.438 364.949 228.335C364.949 259.065 384.787 274.625 420.574 274.625Z" fill="black"/>
<path d="M642.777 77.7974C673.896 77.7974 702.681 98.0247 702.681 137.312V280.46H691.011V145.092C691.011 115.529 681.286 87.9111 637.331 87.9111C592.986 87.9111 566.924 121.364 566.924 142.758V280.46H555.255V80.5203H566.924V116.696H567.702C580.15 97.6357 600.766 77.7974 642.777 77.7974Z" fill="black"/>
<path d="M869.72 132.256C869.72 101.915 846.77 87.9111 816.04 87.9111C775.974 87.9111 754.58 106.971 752.635 136.923H740.966C742.91 109.305 760.026 77.7974 816.04 77.7974C852.216 77.7974 881.39 92.9679 881.39 139.257V240.394C881.39 255.953 879.445 277.348 910.953 270.735V280.849C905.896 282.016 901.228 282.405 898.116 282.405C877.889 282.405 869.72 273.069 869.72 247.785H868.942C852.994 274.236 827.321 284.738 795.813 284.738C757.692 284.738 731.63 264.122 731.63 231.836C731.63 194.493 754.969 178.156 806.315 170.376C836.267 165.708 869.72 166.486 869.72 132.256ZM798.925 274.625C847.548 274.625 869.72 241.95 869.72 219.389V160.263C863.885 173.099 839.379 176.989 810.205 180.49C772.084 185.158 743.299 196.438 743.299 228.335C743.299 259.065 763.138 274.625 798.925 274.625Z" fill="black"/>
<path d="M1021.13 77.7974C1068.58 77.7974 1106.7 115.918 1106.7 181.268C1106.7 246.618 1068.58 284.738 1021.13 284.738C982.229 284.738 957.333 259.454 946.053 230.669H945.275V345.031H933.605V80.5203H945.275V133.034H946.053C957.722 102.304 982.229 77.7974 1021.13 77.7974ZM1018.4 274.625C1063.14 274.625 1095.03 239.616 1095.03 181.268C1095.03 122.92 1063.14 87.9111 1018.4 87.9111C979.895 87.9111 945.275 122.92 945.275 181.268C945.275 239.616 979.895 274.625 1018.4 274.625Z" fill="black"/>
<path d="M1148.09 32.6749C1143.81 32.6749 1138.36 29.174 1138.36 23.3392C1138.36 17.1154 1143.81 14.0035 1148.09 14.0035C1152.76 14.0035 1157.81 17.1154 1157.81 23.3392C1157.81 29.174 1152.76 32.6749 1148.09 32.6749ZM1142.25 80.5203H1153.92V280.46H1142.25V80.5203Z" fill="black"/>
<path d="M1350.83 145.87C1349.27 122.92 1326.71 87.9111 1281.59 87.9111C1229.08 87.9111 1200.68 132.256 1200.68 181.268C1200.68 230.28 1229.08 274.625 1281.59 274.625C1327.1 274.625 1349.27 240.005 1350.83 215.11H1362.5C1359.78 252.453 1327.88 284.738 1281.59 284.738C1226.74 284.738 1189.01 243.506 1189.01 181.268C1189.01 119.03 1226.74 77.7974 1281.59 77.7974C1327.88 77.7974 1358.22 109.305 1362.5 145.87H1350.83Z" fill="black"/>
<path d="M1493.67 0H1509.62L1478.11 48.2344H1466.83L1493.67 0ZM1471.5 284.738C1414.71 284.738 1380.09 243.117 1380.09 181.268C1380.09 119.419 1414.71 77.7974 1471.5 77.7974C1528.29 77.7974 1562.91 119.419 1562.91 181.268C1562.91 243.117 1528.29 284.738 1471.5 284.738ZM1471.5 274.625C1522.46 274.625 1551.24 235.337 1551.24 181.268C1551.24 127.199 1522.46 87.9111 1471.5 87.9111C1420.54 87.9111 1391.76 127.199 1391.76 181.268C1391.76 235.337 1420.54 274.625 1471.5 274.625Z" fill="black"/>
</svg>
