<svg width="50" height="50" viewBox="0 0 50 50" fill="none" xmlns="http://www.w3.org/2000/svg">
<path d="M20.1799 23.1421C20.1799 23.1421 24.9107 22.7912 24.9107 17.2484C24.9107 11.7052 21.0403 9 16.1376 9H0.00469971V39.9761H16.1376C16.1376 39.9761 25.9861 40.2869 25.9861 30.8334C25.9861 30.8335 26.4155 23.1421 20.1799 23.1421ZM14.9763 14.5057H16.1376C16.1376 14.5057 18.3305 14.5057 18.3305 17.7286C18.3305 20.9511 17.0408 21.4183 15.578 21.4183H7.11305V14.5057H14.9763ZM15.6817 34.4706H7.11305V26.1927H16.1376C16.1376 26.1927 19.406 26.1499 19.406 30.4467C19.406 34.0699 16.9648 34.4433 15.6817 34.4706ZM39.1208 16.8812C27.1981 16.8812 27.2087 28.7832 27.2087 28.7832C27.2087 28.7832 26.3906 40.6241 39.1208 40.6241C39.1208 40.6241 49.7292 41.2296 49.7292 32.387H44.2735C44.2735 32.387 44.4555 35.717 39.3028 35.717C39.3028 35.717 33.8462 36.0824 33.8462 30.3278H49.9112C49.9112 30.3277 51.669 16.8812 39.1208 16.8812ZM33.7862 26.1927C33.7862 26.1927 34.4524 21.4182 39.242 21.4182C44.0307 21.4182 43.9707 26.1927 43.9707 26.1927H33.7862ZM45.2416 14.6394H32.4506V10.8249H45.2416V14.6394Z" fill="black"/>
</svg>
