<svg width="415" height="417" viewBox="0 0 415 417" fill="none" xmlns="http://www.w3.org/2000/svg">
<path d="M248.671 0.986328L276.221 42.3931L324.929 32.5473L334.561 81.3823L383.304 90.963L373.552 139.792L414.909 167.34L387.258 208.729L414.933 250.051L373.592 277.698L383.372 326.504L334.635 336.201L325.032 385.059L276.318 375.329L248.792 416.802L207.519 389.127L166.262 416.901L138.712 375.494L90.0044 385.34L80.3723 336.505L31.6294 326.924L41.3815 278.095L0.0240858 250.547L27.6756 209.158L0 167.836L41.3413 140.189L31.5608 91.3833L80.2981 81.6861L89.9017 32.8281L138.615 42.5575L166.141 1.08494L207.414 28.7596L248.671 0.986328Z" fill="#CAE7B9"/>
<path d="M119.935 203.68H118.815L116.575 202.56L117.695 204.8V207.04L116.575 209.28L113.215 211.52L109.855 212.64L115.455 214.88L118.815 218.24V220.48L116.575 223.84L113.215 224.96H110.975L106.495 223.84L104.255 220.48V218.24L108.735 214.88L106.495 213.76L107.615 212.64L109.855 211.52L106.495 210.4L104.255 207.04V204.8L106.495 201.44L109.855 200.32H112.095L115.455 201.44L118.815 200.32L119.935 203.68ZM108.735 202.56L107.615 205.92L108.735 209.28L110.975 210.4L113.215 209.28L114.335 205.92L113.215 202.56L110.975 201.44L108.735 202.56ZM107.615 218.24V220.48L109.855 222.72L113.215 223.84L115.455 221.6V219.36L113.215 217.12L109.855 216L107.615 218.24ZM126.364 204.8V205.92L129.724 201.44L131.964 200.32L134.204 201.44V203.68L131.964 207.04H130.844V203.68H129.724L127.484 205.92V213.76L129.724 216H121.884L124.124 213.76V203.68L120.764 202.56L127.484 200.32L126.364 204.8ZM146.531 201.44L147.651 203.68V213.76L149.891 212.64V213.76L147.651 216H146.531L145.411 213.76L142.051 216H139.811L137.571 214.88L135.331 211.52L136.451 208.16L138.691 207.04L144.291 205.92V203.68L143.171 202.56H140.931L139.811 204.8L137.571 202.56L142.051 200.32L146.531 201.44ZM139.811 209.28L138.691 211.52L140.931 214.88L143.171 213.76L144.291 211.52V207.04L139.811 209.28ZM163.893 201.44L166.133 205.92V210.4L163.893 214.88L160.533 216H158.293L156.053 214.88V222.72L158.293 224.96H150.453L152.693 222.72V203.68L150.453 202.56L156.053 200.32L154.933 204.8L158.293 201.44L160.533 200.32L163.893 201.44ZM156.053 205.92V211.52L157.173 213.76L159.413 214.88L161.653 213.76L162.773 208.16L161.653 202.56H159.413L156.053 205.92ZM173.416 192.48V203.68L174.536 201.44L176.776 200.32L181.256 201.44L182.376 203.68V213.76L184.616 216H176.776L179.016 213.76V203.68L177.896 202.56H175.656L173.416 205.92V213.76L175.656 216H167.816L170.056 213.76V195.84L167.816 194.72L173.416 192.48ZM187.406 196.96V195.84L188.526 193.6H189.646L191.886 194.72V195.84L190.766 198.08H189.646L187.406 196.96ZM191.886 200.32V213.76L194.126 216H186.286L188.526 213.76V203.68L186.286 202.56L191.886 200.32ZM203.096 201.44L200.856 202.56L199.736 207.04V209.28L200.856 213.76L204.216 214.88L206.456 213.76L207.576 211.52L209.816 212.64L207.576 214.88L205.336 216H201.976L198.616 214.88L196.376 210.4V205.92L198.616 201.44L201.976 200.32H204.216L207.576 201.44L208.696 203.68L206.456 205.92H205.336V202.56L203.096 201.44ZM233.331 213.76H234.451L236.691 212.64V213.76L234.451 216H232.211L231.091 213.76L229.971 214.88L227.731 216H225.491L222.131 214.88L219.891 210.4V205.92L222.131 201.44L225.491 200.32H227.731L229.971 201.44V195.84L227.731 194.72L233.331 192.48V213.76ZM224.371 202.56L223.251 208.16L224.371 213.76L226.611 214.88L228.851 213.76L229.971 211.52V204.8L228.851 202.56L226.611 201.44L224.371 202.56ZM245.642 200.32L249.002 201.44L251.242 204.8L250.122 207.04L241.162 209.28L242.282 213.76L245.642 214.88L247.882 213.76L250.122 211.52L251.242 212.64L249.002 214.88L246.762 216H243.402L240.042 214.88L237.802 210.4V205.92L240.042 201.44L243.402 200.32H245.642ZM242.282 202.56L241.162 208.16L246.762 205.92V202.56L244.522 201.44L242.282 202.56ZM262.163 205.92L259.923 202.56H257.683L256.563 203.68V204.8L263.283 209.28L264.403 211.52L263.283 214.88L261.043 216H257.683L255.443 214.88L254.323 216L253.203 210.4H254.323L256.563 213.76L258.803 214.88L261.043 213.76V211.52L254.323 207.04L253.203 204.8L254.323 201.44L258.803 200.32L261.043 201.44L262.163 200.32L263.283 205.92H262.163ZM267.195 196.96V195.84L268.315 193.6H269.435L271.675 194.72V195.84L270.555 198.08H269.435L267.195 196.96ZM271.675 200.32V213.76L273.915 216H266.075L268.315 213.76V203.68L266.075 202.56L271.675 200.32ZM291.845 203.68H290.725L288.485 202.56L289.605 204.8V207.04L288.485 209.28L285.125 211.52L281.765 212.64L287.365 214.88L290.725 218.24V220.48L288.485 223.84L285.125 224.96H282.885L278.405 223.84L276.165 220.48V218.24L280.645 214.88L278.405 213.76L279.525 212.64L281.765 211.52L278.405 210.4L276.165 207.04V204.8L278.405 201.44L281.765 200.32H284.005L287.365 201.44L290.725 200.32L291.845 203.68ZM280.645 202.56L279.525 205.92L280.645 209.28L282.885 210.4L285.125 209.28L286.245 205.92L285.125 202.56L282.885 201.44L280.645 202.56ZM279.525 218.24V220.48L281.765 222.72L285.125 223.84L287.365 221.6V219.36L285.125 217.12L281.765 216L279.525 218.24ZM295.194 213.76V203.68L292.954 202.56L298.554 200.32L297.434 204.8L300.794 201.44L303.034 200.32L307.514 201.44L308.634 203.68V213.76L310.874 216H303.034L305.274 213.76V203.68L304.154 202.56H301.914L298.554 205.92V213.76L300.794 216H292.954L295.194 213.76Z" fill="black"/>
</svg>
