<svg width="135" height="135" viewBox="0 0 135 135" fill="none" xmlns="http://www.w3.org/2000/svg">
<circle cx="67.5" cy="67.5" r="67.5" fill="#EDC7DD"/>
<path d="M39.278 58.176C39.182 56.832 38.27 55.104 35.822 55.104C32.918 55.104 31.814 57.576 31.814 59.88C31.814 62.184 32.918 64.656 35.822 64.656C38.294 64.656 39.182 62.952 39.278 61.488H41.198C41.03 64.272 38.846 66.336 35.822 66.336C32.246 66.336 29.894 63.72 29.894 59.88C29.894 56.04 32.246 53.424 35.822 53.424C38.846 53.424 40.91 55.44 41.198 58.176H39.278ZM48.3393 66.336C44.5953 66.336 42.3393 63.696 42.3393 59.88C42.3393 56.064 44.5953 53.424 48.3393 53.424C52.0593 53.424 54.3153 56.064 54.3153 59.88C54.3153 63.696 52.0593 66.336 48.3393 66.336ZM48.3393 64.656C51.0753 64.656 52.3953 62.496 52.3953 59.88C52.3953 57.264 51.0753 55.104 48.3393 55.104C45.5793 55.104 44.2593 57.264 44.2593 59.88C44.2593 62.496 45.5793 64.656 48.3393 64.656ZM62.2541 53.424C64.4861 53.424 66.3581 54.648 66.3581 57.456V66H64.4381V57.936C64.4381 56.352 63.6941 55.104 61.7741 55.104C59.6141 55.104 58.1741 56.472 58.1741 58.368V66H56.2541V53.76H58.1741V55.224H58.2221C58.8701 54.36 60.1661 53.424 62.2541 53.424ZM74.0274 55.44H71.6274V62.808C71.6274 64.2 72.3954 64.44 74.0274 64.32V66C73.5954 66.096 73.0914 66.144 72.5874 66.144C70.9554 66.144 69.7074 65.496 69.7074 63V55.44H67.9074V53.76H69.7074V49.68H71.6274V53.76H74.0274V55.44ZM83.5233 56.88C83.5233 55.92 82.9953 55.104 81.0273 55.104C78.6993 55.104 77.9313 55.776 77.8113 57.552H75.8913C76.0113 55.2 77.4753 53.424 81.0273 53.424C83.3553 53.424 85.4433 54.336 85.4433 57.288V63.24C85.4433 64.2 85.6113 64.728 86.8353 64.584V65.928C86.3313 66.096 86.0673 66.12 85.7073 66.12C84.5553 66.12 83.8593 65.808 83.5233 64.464H83.4753C82.7073 65.616 81.3393 66.336 79.3233 66.336C76.8513 66.336 75.2913 64.92 75.2913 62.856C75.2913 60.072 77.3553 59.352 80.5233 58.752C82.5873 58.368 83.5233 58.104 83.5233 56.88ZM79.5153 64.656C81.7953 64.656 83.5233 63.624 83.5233 61.272V59.232C83.1633 59.592 81.9873 59.928 80.6913 60.192C78.3153 60.696 77.2113 61.296 77.2113 62.76C77.2113 63.96 77.9313 64.656 79.5153 64.656ZM96.9577 58.176C96.8617 56.832 95.9497 55.104 93.5017 55.104C90.5977 55.104 89.4937 57.576 89.4937 59.88C89.4937 62.184 90.5977 64.656 93.5017 64.656C95.9737 64.656 96.8617 62.952 96.9577 61.488H98.8777C98.7097 64.272 96.5257 66.336 93.5017 66.336C89.9257 66.336 87.5737 63.72 87.5737 59.88C87.5737 56.04 89.9257 53.424 93.5017 53.424C96.5257 53.424 98.5897 55.44 98.8777 58.176H96.9577ZM106.043 55.44H103.643V62.808C103.643 64.2 104.411 64.44 106.043 64.32V66C105.611 66.096 105.107 66.144 104.603 66.144C102.971 66.144 101.723 65.496 101.723 63V55.44H99.923V53.76H101.723V49.68H103.643V53.76H106.043V55.44ZM63.3391 75.424C65.8111 75.424 67.0111 76.888 67.0111 79.456V88H65.0911V79.936C65.0911 78.352 64.7791 77.104 62.8591 77.104C60.9391 77.104 59.7391 78.472 59.7391 80.368V88H57.8191V79.936C57.8191 78.352 57.5071 77.104 55.5871 77.104C53.6671 77.104 52.4671 78.472 52.4671 80.368V88H50.5471V75.76H52.4671V77.224H52.5151C53.1631 76.36 54.2191 75.424 56.0671 75.424C57.8191 75.424 58.8271 76.168 59.3311 77.536H59.3791C60.2191 76.384 61.4911 75.424 63.3391 75.424ZM74.7863 86.656C77.2343 86.656 78.1463 85.072 78.3623 84.232H80.2823C79.6583 86.512 77.9063 88.336 74.8583 88.336C71.1383 88.336 68.8823 85.72 68.8823 81.88C68.8823 77.8 71.1863 75.424 74.7623 75.424C78.6023 75.424 80.4743 78.04 80.4743 82.384H70.8023C70.8023 84.592 72.1223 86.656 74.7863 86.656ZM74.7623 77.104C72.4583 77.104 70.8023 78.736 70.8023 80.704H78.5543C78.5543 78.736 77.0663 77.104 74.7623 77.104ZM82.9512 70.84H85.1112V75.76L84.6312 83.584H83.4312L82.9512 75.76V70.84ZM84.0312 88.168C83.2872 88.168 82.7112 87.664 82.7112 86.848C82.7112 86.056 83.2872 85.528 84.0312 85.528C84.7752 85.528 85.3512 86.056 85.3512 86.848C85.3512 87.664 84.7752 88.168 84.0312 88.168Z" fill="black"/>
</svg>
