<svg width="521" height="332" viewBox="0 0 521 332" fill="none" xmlns="http://www.w3.org/2000/svg">
<path d="M515.438 73.4712C542.984 149.547 451.021 252.603 310.033 303.652C169.045 354.702 32.4215 334.413 4.87564 258.337C-22.6703 182.26 69.2926 79.2048 210.28 28.1556C351.268 -22.8936 487.892 -2.60513 515.438 73.4712Z" fill="#F3DE8A"/>
<path d="M178.24 153.96V152.84L179.36 150.6H180.48L182.72 151.72V152.84L181.6 155.08H180.48L178.24 153.96ZM182.72 157.32V170.76L184.96 173H177.12L179.36 170.76V160.68L177.12 159.56L182.72 157.32ZM192.25 149.48V170.76L194.49 173H186.65L188.89 170.76V152.84L186.65 151.72L192.25 149.48ZM201.219 149.48V170.76L203.459 173H195.619L197.859 170.76V152.84L195.619 151.72L201.219 149.48ZM218.587 173H217.467L216.347 170.76L212.987 173H210.747L207.387 171.88L206.267 169.64V159.56L204.027 158.44L209.627 157.32V169.64L210.747 170.76H212.987L214.107 169.64L215.227 167.4V159.56L212.987 158.44L218.587 157.32V170.76L220.827 169.64V170.76L218.587 173ZM231.176 162.92L228.936 159.56H226.696L225.576 160.68V161.8L232.296 166.28L233.416 168.52L232.296 171.88L230.056 173H226.696L224.456 171.88L223.336 173L222.216 167.4H223.336L225.576 170.76L227.816 171.88L230.056 170.76V168.52L223.336 164.04L222.216 161.8L223.336 158.44L227.816 157.32L230.056 158.44L231.176 157.32L232.296 162.92H231.176ZM240.129 158.44H243.489V159.56L240.129 160.68V169.64L241.249 170.76L243.489 168.52L244.609 169.64L242.369 171.88L240.129 173H239.009L236.769 169.64V160.68L234.529 159.56V158.44L236.769 157.32L237.889 156.2L239.009 153.96H240.129V158.44ZM251.045 161.8V162.92L254.405 158.44L256.645 157.32L258.885 158.44V160.68L256.645 164.04H255.525V160.68H254.405L252.165 162.92V170.76L254.405 173H246.565L248.805 170.76V160.68L245.445 159.56L252.165 157.32L251.045 161.8ZM271.213 158.44L272.333 160.68V170.76L274.573 169.64V170.76L272.333 173H271.213L270.093 170.76L266.733 173H264.493L262.253 171.88L260.013 168.52L261.133 165.16L263.373 164.04L268.973 162.92V160.68L267.853 159.56H265.613L264.493 161.8L262.253 159.56L266.733 157.32L271.213 158.44ZM264.493 166.28L263.373 168.52L265.613 171.88L267.853 170.76L268.973 168.52V164.04L264.493 166.28ZM280.734 158.44H284.094V159.56L280.734 160.68V169.64L281.854 170.76L284.094 168.52L285.214 169.64L282.974 171.88L280.734 173H279.614L277.374 169.64V160.68L275.134 159.56V158.44L277.374 157.32L278.494 156.2L279.614 153.96H280.734V158.44ZM287.451 153.96V152.84L288.571 150.6H289.691L291.931 151.72V152.84L290.811 155.08H289.691L287.451 153.96ZM291.931 157.32V170.76L294.171 173H286.331L288.571 170.76V160.68L286.331 159.56L291.931 157.32ZM304.261 157.32L307.621 158.44L309.861 162.92V167.4L307.621 171.88L304.261 173H302.021L298.661 171.88L296.421 167.4V162.92L298.661 158.44L302.021 157.32H304.261ZM300.901 159.56L299.781 165.16L300.901 170.76L303.141 171.88L305.381 170.76L306.501 165.16L305.381 159.56L303.141 158.44L300.901 159.56ZM314.329 170.76V160.68L312.089 159.56L317.689 157.32L316.569 161.8L319.929 158.44L322.169 157.32L326.649 158.44L327.769 160.68V170.76L330.009 173H322.169L324.409 170.76V160.68L323.289 159.56H321.049L317.689 162.92V170.76L319.929 173H312.089L314.329 170.76ZM340.36 162.92L338.12 159.56H335.88L334.76 160.68V161.8L341.48 166.28L342.6 168.52L341.48 171.88L339.24 173H335.88L333.64 171.88L332.52 173L331.4 167.4H332.52L334.76 170.76L337 171.88L339.24 170.76V168.52L332.52 164.04L331.4 161.8L332.52 158.44L337 157.32L339.24 158.44L340.36 157.32L341.48 162.92H340.36Z" fill="#1A1A1A"/>
</svg>
