<svg width="50" height="50" viewBox="0 0 50 50" fill="none" xmlns="http://www.w3.org/2000/svg">
<g clip-path="url(#clip0_73_16)">
<path d="M36.2013 0H13.7978C6.1897 0 0 6.19 0 13.7981V36.2016C0 43.81 6.1897 49.9997 13.7978 49.9997H36.2013C43.81 49.9997 49.9997 43.8097 49.9997 36.2016V13.7981C50 6.19 43.81 0 36.2013 0ZM45.5638 36.2016C45.5638 41.3639 41.3639 45.5635 36.2016 45.5635H13.7978C8.63583 45.5638 4.43622 41.3639 4.43622 36.2016V13.7981C4.43622 8.63613 8.63583 4.43622 13.7978 4.43622H36.2013C41.3636 4.43622 45.5635 8.63613 45.5635 13.7981V36.2016H45.5638Z" fill="black"/>
<path d="M24.9999 12.1172C17.8957 12.1172 12.1162 17.8967 12.1162 25.0008C12.1162 32.1047 17.8957 37.8839 24.9999 37.8839C32.104 37.8839 37.8835 32.1047 37.8835 25.0008C37.8835 17.8967 32.104 12.1172 24.9999 12.1172ZM24.9999 33.4474C20.3421 33.4474 16.5524 29.6583 16.5524 25.0005C16.5524 20.3425 20.3418 16.5531 24.9999 16.5531C29.6579 16.5531 33.4473 20.3425 33.4473 25.0005C33.4473 29.6583 29.6576 33.4474 24.9999 33.4474Z" fill="black"/>
<path d="M38.4238 8.35547C37.5691 8.35547 36.7295 8.70149 36.1259 9.30778C35.5193 9.9111 35.1706 10.751 35.1706 11.6087C35.1706 12.4637 35.5196 13.3033 36.1259 13.9096C36.7292 14.5129 37.5691 14.8619 38.4238 14.8619C39.2815 14.8619 40.1185 14.5129 40.7247 13.9096C41.331 13.3033 41.677 12.4634 41.677 11.6087C41.677 10.751 41.331 9.9111 40.7247 9.30778C40.1214 8.70149 39.2815 8.35547 38.4238 8.35547Z" fill="black"/>
</g>
<defs>
<clipPath id="clip0_73_16">
<rect width="50" height="50" fill="white"/>
</clipPath>
</defs>
</svg>
