<svg width="141" height="141" viewBox="0 0 141 141" fill="none" xmlns="http://www.w3.org/2000/svg">
<circle cx="70.5" cy="70.5" r="70.5" fill="#EDC7DD"/>
<path d="M45.36 75.76V65.68L43.12 64.56L48.72 62.32L47.6 66.8L50.96 63.44L53.2 62.32L57.68 63.44L58.8 65.68L61.04 63.44L63.28 62.32L67.76 63.44L68.88 65.68V75.76L71.12 78H63.28L65.52 75.76V65.68L64.4 64.56H62.16L58.8 67.92V75.76L61.04 78H53.2L55.44 75.76V65.68L54.32 64.56H52.08L48.72 67.92V75.76L50.96 78H43.12L45.36 75.76ZM73.3611 58.96V57.84L74.4811 55.6H75.6011L77.8411 56.72V57.84L76.7211 60.08H75.6011L73.3611 58.96ZM77.8411 62.32V75.76L80.0811 78H72.2411L74.4811 75.76V65.68L72.2411 64.56L77.8411 62.32ZM91.5709 67.92L89.3309 64.56H87.0909L85.9709 65.68V66.8L92.6909 71.28L93.8109 73.52L92.6909 76.88L90.4509 78H87.0909L84.8509 76.88L83.7309 78L82.6109 72.4H83.7309L85.9709 75.76L88.2109 76.88L90.4509 75.76V73.52L83.7309 69.04L82.6109 66.8L83.7309 63.44L88.2109 62.32L90.4509 63.44L91.5709 62.32L92.6909 67.92H91.5709ZM102.203 63.44L99.9633 64.56L98.8433 69.04V71.28L99.9633 75.76L103.323 76.88L105.563 75.76L106.683 73.52L108.923 74.64L106.683 76.88L104.443 78H101.083L97.7233 76.88L95.4833 72.4V67.92L97.7233 63.44L101.083 62.32H103.323L106.683 63.44L107.803 65.68L105.563 67.92H104.443V64.56L102.203 63.44Z" fill="black"/>
</svg>
