<svg width="277" height="202" viewBox="0 0 277 202" fill="none" xmlns="http://www.w3.org/2000/svg">
<path d="M52.5836 41.7109C52.5836 52.8194 51.3567 65.4255 57.7988 75.0886" stroke="#1A1A1A" stroke-width="3" stroke-linecap="round"/>
<path d="M55.7127 9.377C55.7127 3.16552 53.3825 6.27032 53.6266 10.4201C53.8321 13.9137 61.5033 9.16132 57.1614 5.78426C52.3252 2.02277 49.6127 12.9865 52.6415 13.4913C53.7121 13.6697 58.5203 14.0978 58.7839 12.9118C59.3276 10.465 59.2711 7.0863 56.7557 6.24784" stroke="#1A1A1A" stroke-width="10" stroke-linecap="round"/>
<path d="M222.346 131.377C222.346 125.166 220.016 128.27 220.26 132.42C220.465 135.914 228.137 131.161 223.795 127.784C218.958 124.023 216.246 134.986 219.275 135.491C220.345 135.67 225.154 136.098 225.417 134.912C225.961 132.465 225.904 129.086 223.389 128.248" stroke="#1A1A1A" stroke-width="10" stroke-linecap="round"/>
<path d="M245.346 129.377C245.346 123.166 243.016 126.27 243.26 130.42C243.465 133.914 251.137 129.161 246.795 125.784C241.958 122.023 239.246 132.986 242.275 133.491C243.345 133.67 248.154 134.098 248.417 132.912C248.961 130.465 248.904 127.086 246.389 126.248" stroke="#1A1A1A" stroke-width="10" stroke-linecap="round"/>
<path d="M268.346 126.377C268.346 120.166 266.016 123.27 266.26 127.42C266.465 130.914 274.137 126.161 269.795 122.784C264.958 119.023 262.246 129.986 265.275 130.491C266.345 130.67 271.154 131.098 271.417 129.912C271.961 127.465 271.904 124.086 269.389 123.248" stroke="#1A1A1A" stroke-width="10" stroke-linecap="round"/>
<path d="M82.832 47.9711C79.2307 48.4213 82.832 71.4438 82.832 75.612C82.832 76.4469 84.1343 67.151 84.9181 64.8918C87.3017 58.0214 89.0217 50.0572 93.2625 44.0307C95.7547 40.4891 104.351 40.738 106.822 43.9148C111.874 50.4094 113.613 59.9775 119.339 65.703" stroke="#1A1A1A" stroke-width="3" stroke-linecap="round"/>
<path d="M5.31469 143.103C5.31469 160.867 5.83967 178.02 8.67564 195.603C8.96377 197.39 10.422 198.744 10.53 200.471C10.5548 200.869 8.4149 193.916 8.03822 192.242C6.39723 184.949 6.47901 177.246 5.0829 169.875C3.8664 163.451 2.60735 157.07 2.24348 150.52C1.79346 142.42 0.94312 136.576 10.53 137.946C16.4672 138.794 16.8587 147.496 16.7883 151.795C16.6948 157.498 12.7503 160.05 8.44385 162.921" stroke="#1A1A1A" stroke-width="3" stroke-linecap="round"/>
<path d="M28.2617 138.931C28.2617 142.42 28.7251 145.449 29.2468 148.84C29.9836 153.629 29.3048 142.642 29.3048 140.785C29.3048 133.226 31.739 125.371 40.7784 125.371" stroke="#1A1A1A" stroke-width="3" stroke-linecap="round"/>
<path d="M53.2951 125.371C53.2951 130.488 51.9153 137.72 53.411 142.581C55.5225 149.444 71.027 149.513 71.027 141.017C71.027 135.06 55.7265 117.379 51.209 126.414" stroke="#1A1A1A" stroke-width="3" stroke-linecap="round"/>
<path d="M91.888 128.5C87.569 128.5 84.6277 128.837 83.5436 133.716C82.8342 136.908 80.9186 140.771 85.1082 142.06C89.5509 143.427 92.3651 142.266 93.7423 137.308C94.1943 135.681 95.0591 127.798 93.7423 126.646C88.7364 122.266 96.9019 139.602 99.2473 145.827C102.208 153.684 103.705 161.251 104.926 169.527C105.69 174.704 107.38 180.565 105.795 185.752C103.371 193.688 91.5287 196.299 84.3548 196.299C76.7133 196.299 74.456 191.384 69.9839 186.911" stroke="#1A1A1A" stroke-width="3" stroke-linecap="round"/>
<path d="M107.534 130.587C107.534 134.317 108.366 135.946 109.62 139.395C110.104 140.725 110.872 141.539 111.706 142.582C112.58 143.675 109.538 137.376 109.156 136.44C107.593 132.603 104.769 128.248 107.766 124.329C109.448 122.129 113.562 118.26 116.11 117.259C118.007 116.514 119.308 117.175 121.094 115.984" stroke="#1A1A1A" stroke-width="3" stroke-linecap="round"/>
<path d="M120.05 130.587C128.643 130.587 137.339 130.953 141.375 121.779C141.826 120.754 145.795 114.054 142.997 113.898C139.147 113.684 134.456 113.169 131.524 116.1C127.878 119.746 120.136 130.49 126.54 134.759C131.327 137.95 143.657 141.126 146.127 133.716" stroke="#1A1A1A" stroke-width="3" stroke-linecap="round"/>
<path d="M165.945 111.814C165.719 110.007 160.729 118.934 160.729 121.723C160.729 127.002 167.519 127.333 172.203 127.459C178.302 127.624 179.504 127.212 179.504 133.718C179.504 137.716 173.157 138.992 170.117 141.019" stroke="#1A1A1A" stroke-width="3" stroke-linecap="round"/>
<path d="M194.107 108.684C193.65 113.717 192.021 117.861 192.021 123.055C192.021 128.744 197.213 125.939 200.887 127.98C206.81 131.27 198.559 139.975 194.107 139.975" stroke="#1A1A1A" stroke-width="3" stroke-linecap="round"/>
</svg>
