<svg width="93" height="103" viewBox="0 0 93 103" fill="none" xmlns="http://www.w3.org/2000/svg">
<path d="M7.776 13.992C11.64 14.952 14.16 15.6 14.16 19.512C14.16 22.008 12.312 24.336 7.968 24.336C3.912 24.336 0.768 22.176 0.528 18.24H2.688C2.928 20.592 4.368 22.416 7.968 22.416C10.944 22.416 12 21.048 12 19.512C12 17.16 10.728 16.728 6.888 15.84C4.32 15.24 1.248 14.352 1.248 11.016C1.248 8.304 3.336 6.504 7.128 6.504C10.776 6.504 13.32 8.376 13.608 11.928H11.448C11.136 9.624 9.84 8.424 7.128 8.424C4.704 8.424 3.408 9.36 3.408 10.776C3.408 13.056 5.256 13.368 7.776 13.992ZM29.0634 12.504C28.7514 10.872 27.5034 8.424 23.9274 8.424C19.8474 8.424 18.1434 11.952 18.1434 15.408C18.1434 18.888 19.8474 22.416 23.9274 22.416C27.5274 22.416 28.9194 19.968 29.0634 17.808H31.2234C30.8394 21.6 28.1514 24.336 23.9274 24.336C19.2234 24.336 15.9834 20.592 15.9834 15.408C15.9834 10.248 19.2234 6.504 23.9274 6.504C28.1274 6.504 30.8154 9.24 31.2234 12.504H29.0634ZM33.6471 24V6.84H40.6071C43.9911 6.84 46.2711 8.664 46.2711 11.712C46.2711 14.184 45.0951 15.552 43.1991 16.032V16.08C47.0151 16.824 45.6231 23.568 46.5111 23.856V24H44.1831C43.4391 23.28 45.0711 17.064 40.7271 17.064H35.8071V24H33.6471ZM35.8071 8.76V15.144H40.1031C41.8791 15.144 44.1111 14.928 44.1111 11.952C44.1111 8.976 41.8791 8.76 40.1031 8.76H35.8071ZM56.5866 24.336C51.5466 24.336 48.1866 20.568 48.1866 15.408C48.1866 10.248 51.5466 6.504 56.5866 6.504C61.6266 6.504 64.9866 10.248 64.9866 15.408C64.9866 20.568 61.6266 24.336 56.5866 24.336ZM56.5866 22.416C60.9066 22.416 62.8266 19.104 62.8266 15.408C62.8266 11.712 60.9066 8.424 56.5866 8.424C52.2666 8.424 50.3466 11.712 50.3466 15.408C50.3466 19.104 52.2666 22.416 56.5866 22.416ZM67.5611 6.84H69.7211V22.08H78.7211V24H67.5611V6.84ZM80.8502 6.84H83.0102V22.08H92.0102V24H80.8502V6.84Z" fill="black"/>
<path d="M47 103L49.8868 98H44.1132L47 103ZM46.5 37V98.5H47.5V37H46.5Z" fill="black"/>
</svg>
