<svg width="418" height="459" viewBox="0 0 418 459" fill="none" xmlns="http://www.w3.org/2000/svg">
<path d="M40.6774 0L417.977 264.531L0 458.995L40.6774 0Z" fill="#D9D9D9"/>
<path d="M100.849 239.208H104.209V240.328L100.849 241.448V250.408L101.969 251.528L104.209 249.288L105.329 250.408L103.089 252.648L100.849 253.768H99.729L97.489 250.408V241.448L95.249 240.328V239.208L97.489 238.088L98.609 236.968L99.729 234.728H100.849V239.208ZM114.286 238.088L117.646 239.208L119.886 243.688V248.168L117.646 252.648L114.286 253.768H112.046L108.686 252.648L106.446 248.168V243.688L108.686 239.208L112.046 238.088H114.286ZM110.926 240.328L109.806 245.928L110.926 251.528L113.166 252.648L115.406 251.528L116.526 245.928L115.406 240.328L113.166 239.208L110.926 240.328ZM123.234 241.448L120.994 239.208H128.834L126.594 241.448L129.954 250.408L134.434 241.448L132.194 239.208H138.914L136.674 241.448L125.474 262.728H123.234L122.114 261.608L128.834 252.648L123.234 241.448ZM162.433 251.528H163.553L165.793 250.408V251.528L163.553 253.768H161.313L160.193 251.528L159.073 252.648L156.833 253.768H154.593L151.233 252.648L148.993 248.168V243.688L151.233 239.208L154.593 238.088H156.833L159.073 239.208V233.608L156.833 232.488L162.433 230.248V251.528ZM153.473 240.328L152.353 245.928L153.473 251.528L155.713 252.648L157.953 251.528L159.073 249.288V242.568L157.953 240.328L155.713 239.208L153.473 240.328ZM174.743 238.088L178.103 239.208L180.343 242.568L179.223 244.808L170.263 247.048L171.383 251.528L174.743 252.648L176.983 251.528L179.223 249.288L180.343 250.408L178.103 252.648L175.863 253.768H172.503L169.143 252.648L166.903 248.168V243.688L169.143 239.208L172.503 238.088H174.743ZM171.383 240.328L170.263 245.928L175.863 243.688V240.328L173.623 239.208L171.383 240.328ZM191.264 243.688L189.024 240.328H186.784L185.664 241.448V242.568L192.384 247.048L193.504 249.288L192.384 252.648L190.144 253.768H186.784L184.544 252.648L183.424 253.768L182.304 248.168H183.424L185.664 251.528L187.904 252.648L190.144 251.528V249.288L183.424 244.808L182.304 242.568L183.424 239.208L187.904 238.088L190.144 239.208L191.264 238.088L192.384 243.688H191.264ZM196.296 234.728V233.608L197.416 231.368H198.536L200.776 232.488V233.608L199.656 235.848H198.536L196.296 234.728ZM200.776 238.088V251.528L203.016 253.768H195.176L197.416 251.528V241.448L195.176 240.328L200.776 238.088ZM220.946 241.448H219.826L217.586 240.328L218.706 242.568V244.808L217.586 247.048L214.226 249.288L210.866 250.408L216.466 252.648L219.826 256.008V258.248L217.586 261.608L214.226 262.728H211.986L207.506 261.608L205.266 258.248V256.008L209.746 252.648L207.506 251.528L208.626 250.408L210.866 249.288L207.506 248.168L205.266 244.808V242.568L207.506 239.208L210.866 238.088H213.106L216.466 239.208L219.826 238.088L220.946 241.448ZM209.746 240.328L208.626 243.688L209.746 247.048L211.986 248.168L214.226 247.048L215.346 243.688L214.226 240.328L211.986 239.208L209.746 240.328ZM208.626 256.008V258.248L210.866 260.488L214.226 261.608L216.466 259.368V257.128L214.226 254.888L210.866 253.768L208.626 256.008ZM224.295 251.528V241.448L222.055 240.328L227.655 238.088L226.535 242.568L229.895 239.208L232.135 238.088L236.615 239.208L237.735 241.448V251.528L239.975 253.768H232.135L234.375 251.528V241.448L233.255 240.328H231.015L227.655 243.688V251.528L229.895 253.768H222.055L224.295 251.528Z" fill="#1A1A1A"/>
</svg>
