<svg width="521" height="521" viewBox="0 0 521 521" fill="none" xmlns="http://www.w3.org/2000/svg">
<rect x="180.722" width="385" height="385" transform="rotate(27.9958 180.722 0)" fill="#9498F6"/>
<path d="M184.04 264.64L181.8 266.88L179.56 268H175.08L171.72 266.88L169.48 264.64L168.36 261.28V247.84L166.12 245.6H173.96L171.72 247.84V260.16L172.84 264.64L176.2 266.88H178.44L180.68 265.76L181.8 264.64L182.92 261.28V247.84L180.68 245.6H187.4L185.16 247.84V261.28L184.04 264.64ZM197.476 268H189.636L191.876 265.76V247.84L189.636 245.6H197.476L195.236 247.84V265.76L197.476 268ZM206.445 246.72L200.845 270.24H198.605L204.205 246.72H206.445ZM226.614 264.64L224.374 266.88L222.134 268H217.654L214.294 266.88L212.054 264.64L210.934 261.28V247.84L208.694 245.6H216.534L214.294 247.84V260.16L215.414 264.64L218.774 266.88H221.014L223.254 265.76L224.374 264.64L225.494 261.28V247.84L223.254 245.6H229.974L227.734 247.84V261.28L226.614 264.64ZM245.65 245.6H253.49L251.25 247.84L244.53 256.8L251.25 265.76L253.49 268H244.53L246.77 265.76L243.41 257.92H242.29L237.81 265.76L240.05 268H232.21L234.45 265.76L241.17 256.8L234.45 247.84L232.21 245.6H241.17L238.93 247.84L242.29 255.68H243.41L247.89 247.84L245.65 245.6ZM278.134 265.76H279.254L281.494 264.64V265.76L279.254 268H277.014L275.894 265.76L274.774 266.88L272.534 268H270.294L266.934 266.88L264.694 262.4V257.92L266.934 253.44L270.294 252.32H272.534L274.774 253.44V247.84L272.534 246.72L278.134 244.48V265.76ZM269.174 254.56L268.054 260.16L269.174 265.76L271.414 266.88L273.654 265.76L274.774 263.52V256.8L273.654 254.56L271.414 253.44L269.174 254.56ZM290.444 252.32L293.804 253.44L296.044 256.8L294.924 259.04L285.964 261.28L287.084 265.76L290.444 266.88L292.684 265.76L294.924 263.52L296.044 264.64L293.804 266.88L291.564 268H288.204L284.844 266.88L282.604 262.4V257.92L284.844 253.44L288.204 252.32H290.444ZM287.084 254.56L285.964 260.16L291.564 257.92V254.56L289.324 253.44L287.084 254.56ZM306.965 257.92L304.725 254.56H302.485L301.365 255.68V256.8L308.085 261.28L309.205 263.52L308.085 266.88L305.845 268H302.485L300.245 266.88L299.125 268L298.005 262.4H299.125L301.365 265.76L303.605 266.88L305.845 265.76V263.52L299.125 259.04L298.005 256.8L299.125 253.44L303.605 252.32L305.845 253.44L306.965 252.32L308.085 257.92H306.965ZM311.998 248.96V247.84L313.118 245.6H314.238L316.478 246.72V247.84L315.358 250.08H314.238L311.998 248.96ZM316.478 252.32V265.76L318.718 268H310.878L313.118 265.76V255.68L310.878 254.56L316.478 252.32ZM336.648 255.68H335.528L333.288 254.56L334.408 256.8V259.04L333.288 261.28L329.928 263.52L326.568 264.64L332.168 266.88L335.528 270.24V272.48L333.288 275.84L329.928 276.96H327.688L323.208 275.84L320.968 272.48V270.24L325.448 266.88L323.208 265.76L324.328 264.64L326.568 263.52L323.208 262.4L320.968 259.04V256.8L323.208 253.44L326.568 252.32H328.808L332.168 253.44L335.528 252.32L336.648 255.68ZM325.448 254.56L324.328 257.92L325.448 261.28L327.688 262.4L329.928 261.28L331.048 257.92L329.928 254.56L327.688 253.44L325.448 254.56ZM324.328 270.24V272.48L326.568 274.72L329.928 275.84L332.168 273.6V271.36L329.928 269.12L326.568 268L324.328 270.24ZM339.997 265.76V255.68L337.757 254.56L343.357 252.32L342.237 256.8L345.597 253.44L347.837 252.32L352.317 253.44L353.437 255.68V265.76L355.677 268H347.837L350.077 265.76V255.68L348.957 254.56H346.717L343.357 257.92V265.76L345.597 268H337.757L339.997 265.76Z" fill="#1A1A1A"/>
</svg>
